<?xml version="1.0" encoding="UTF-8" standalone="no"?>
<svg xmlns:rdf="http://www.w3.org/1999/02/22-rdf-syntax-ns#" xmlns="http://www.w3.org/2000/svg" height="138.6pt" width="555.23pt" version="1.1" xmlns:cc="http://creativecommons.org/ns#" xmlns:dc="http://purl.org/dc/elements/1.1/" viewBox="0 0 555.23395 138.60228">
 <path d="m226.33 1.6855c-25.76-0.0341-42.82 13.544-45.22 33.848-0.89 7.47-1.73 14.071-1.73 14.071h335.17s0.63-4.946 1.12-8.916c2.52-20.454-6.17-39-37.78-39v0.0024s-237.98 0.0091-251.56-0.0059zm-204.55 0.0059l-5.883 47.914h152l5.86-47.914-151.98 0.0004zm510.23 0l-5.87 47.914h164.78s0.2-1.733 0.93-7.373c4.01-31.45-16.28-40.541-35.87-40.541l-123.97 0.0004zm-8.14 66.157l-12.84 104.57 56.85-0.02 12.85-104.53-56.86-0.022zm108 0l-12.86 104.57 56.85-0.02 12.85-104.53-56.84-0.022zm-618.19 0.015l-12.862 104.56h151.99l5.6-45.36-95.173-0.01 2.408-19.56h95.135l4.87-39.627h-151.96zm163.47 0c-4.17 27.29 9.49 39.627 28.85 39.627 10.53 0 76.9-0.03 76.9-0.03l-2.4 19.59-110.61 0.01-5.57 45.36s120.42 0.04 125.3 0c4.03-0.29 32.2-1.06 41.79-24.1 3.11-7.48 5.86-34.3 6.63-39.93 4.43-32.7-18.21-40.497-36.04-40.497-9.83 0-105.44-0.03-124.85-0.03zm176.94 0l-12.84 104.56h56.82l8-64.93h71.37c20.24 0 31.12-10.882 33.14-25.496 1.02-7.373 1.75-14.131 1.75-14.131h-158.24z" transform="scale(.8)" fill="#ef4135"/>
</svg>
